<svg width="32" height="32" viewBox="0 0 32 32" version="1.1" xmlns="http://www.w3.org/2000/svg" xmlns:xlink="http://www.w3.org/1999/xlink">
    <defs>
        <style type="text/css">
            <![CDATA[
            @font-face { font-family: ifont; src: url(http://at.alicdn.com/t/font_1442373896_4754455.eot?#iefix) format(embedded-opentype), url(http://at.alicdn.com/t/font_1442373896_4754455.woff) format(woff), url(http://at.alicdn.com/t/font_1442373896_4754455.ttf) format(truetype), url(http://at.alicdn.com/t/font_1442373896_4754455.svg#ifont) format(svg); }
            ]]>
        </style>
    </defs>
    <g class="transform-group">
        <g transform="scale(0.03125, 0.03125)">
            <path d="M204.148052 315.731918l613.682867 0c15.399735 0 27.894304-12.406564 27.894304-27.690666 0-15.284101-12.494569-27.690666-27.894304-27.690666L204.148052 260.350586c-15.399735 0-27.89328 12.406564-27.89328 27.690666C176.254771 303.325353 188.748317 315.731918 204.148052 315.731918zM204.148052 454.247668l613.682867 0c15.399735 0 27.894304-12.407588 27.894304-27.691689 0-15.311731-12.494569-27.719318-27.894304-27.719318L204.148052 398.836661c-15.399735 0-27.89328 12.407588-27.89328 27.719318C176.254771 441.84008 188.748317 454.247668 204.148052 454.247668zM204.148052 592.761372l613.682867 0c15.399735 0 27.894304-12.408611 27.894304-27.691689 0-15.312754-12.494569-27.692712-27.894304-27.692712L204.148052 537.37697c-15.399735 0-27.89328 12.379958-27.89328 27.692712C176.254771 580.352761 188.748317 592.761372 204.148052 592.761372zM929.409157 107.9762 92.58414 107.9762c-15.414061 0-27.894304 12.406564-27.894304 27.691689l0 581.747527c0 15.313777 12.480242 27.722388 27.894304 27.722388l195.248869 0 0 138.51268c0 10.809183 6.348592 20.629853 16.241916 25.164123 3.735068 1.684362 7.701402 2.52859 11.652388 2.52859 6.53688 0 13.003152-2.26867 18.160615-6.655584l187.416484-159.549809 408.105768 0c15.399735 0 27.894304-12.408611 27.894304-27.722388L957.304484 135.666866C957.30346 120.382764 944.808892 107.9762 929.409157 107.9762zM901.51383 689.724751 510.989485 689.724751c-6.653537 0-13.08911 2.354628-18.160615 6.653537l-149.208277 127.037325L343.620593 717.414393c0-15.282055-12.478196-27.690666-27.89328-27.690666L120.464117 689.723727l0-526.337543 781.049712 0L901.51383 689.724751z" fill="#ffffff">
            </path>
        </g>
    </g>
</svg>